<?xml version="1.0" encoding="UTF-8" standalone="no"?>
<!-- Created with Inkscape (http://www.inkscape.org/) -->
<svg
   xmlns:dc="http://purl.org/dc/elements/1.1/"
   xmlns:cc="http://web.resource.org/cc/"
   xmlns:rdf="http://www.w3.org/1999/02/22-rdf-syntax-ns#"
   xmlns:svg="http://www.w3.org/2000/svg"
   xmlns="http://www.w3.org/2000/svg"
   xmlns:sodipodi="http://sodipodi.sourceforge.net/DTD/sodipodi-0.dtd"
   xmlns:inkscape="http://www.inkscape.org/namespaces/inkscape"
   version="1.0"
   width="770"
   height="300.79001"
   viewBox="0 0 800 265.792"
   id="Layer_1"
   xml:space="preserve"
   sodipodi:version="0.32"
   inkscape:version="0.45"
   sodipodi:docname="Eurovision_Song_Contest_logo.svg"
   inkscape:output_extension="org.inkscape.output.svg.inkscape"
   sodipodi:docbase="C:\Documents and Settings\Sigurd\Mine dokumenter\Mine bilder"
   sodipodi:modified="true"><metadata
   id="metadata32576"><rdf:RDF><cc:Work
       rdf:about=""><dc:format>image/svg+xml</dc:format><dc:type
         rdf:resource="http://purl.org/dc/dcmitype/StillImage" /></cc:Work></rdf:RDF></metadata><sodipodi:namedview
   inkscape:window-height="719"
   inkscape:window-width="1024"
   inkscape:pageshadow="2"
   inkscape:pageopacity="0.0"
   guidetolerance="10.0"
   gridtolerance="10.0"
   objecttolerance="10.0"
   borderopacity="1.0"
   bordercolor="#666666"
   pagecolor="#ffffff"
   id="base"
   inkscape:zoom="0.86375"
   inkscape:cx="400"
   inkscape:cy="132.896"
   inkscape:window-x="-4"
   inkscape:window-y="-4"
   inkscape:current-layer="Layer_1"
   height="300.79px"
   width="770px" /><defs
   id="defs52" />
<g
   id="g3"
   transform="matrix(0.8431913,0,0,0.8431913,62.723494,20.839295)">
	<path
   d="M 73.216,73.896 C 66.379,75.265 62.049,77.088 54.528,79.366 C 47.007,81.644 39.258,84.607 31.052,86.658 C 22.848,88.709 21.026,88.254 17.607,88.254 C 14.188,88.254 12.819,86.887 16.011,81.188 C 19.2,75.489 28.544,61.589 34.014,55.663 C 39.484,49.735 54.756,39.936 58.856,37.431 C 62.959,34.924 67.289,31.734 70.71,31.734 C 74.126,31.734 79.369,31.505 81.421,28.996 C 83.472,26.493 88.257,23.073 88.257,19.199 C 88.257,15.325 87.346,14.185 87.575,12.589 C 87.802,10.993 89.169,10.537 90.993,10.537 C 92.815,10.537 93.498,7.348 91.22,6.663 C 88.94,5.98 88.94,7.119 86.435,4.614 C 83.928,2.105 78.685,-0.4 75.724,0.053 C 72.761,0.511 59.77,5.068 51.564,10.537 C 43.358,16.006 28.774,28.546 19.659,38.799 C 10.542,49.057 0.513,66.831 0.058,77.317 C -0.398,87.799 1.882,93.498 5.298,97.83 C 8.719,102.157 10.313,103.98 15.782,103.298 C 21.252,102.613 30.825,100.335 30.825,100.335 C 30.825,100.335 24.899,109.908 22.392,113.326 C 19.885,116.744 16.695,121.303 16.695,121.303 C 16.695,121.303 23.074,117.429 25.128,115.377 C 27.179,113.326 28.317,110.818 31.28,108.994 C 34.243,107.172 37.89,104.209 37.89,104.209 C 37.89,104.209 27.862,119.252 23.985,124.266 C 20.111,129.28 13.959,145.69 10.996,151.84 C 8.033,157.994 4.615,169.623 4.386,172.584 C 4.159,175.545 4.386,175.545 4.159,178.968 C 3.93,182.381 2.334,182.381 4.386,185.804 C 6.438,189.218 6.438,189.218 6.438,190.587 C 6.438,191.956 7.805,191.494 8.489,193.325 C 9.174,195.148 10.312,195.37 12.136,197.655 C 13.958,199.931 19.884,202.438 21.024,204.945 C 22.162,207.453 23.302,207.683 26.95,209.275 C 30.595,210.875 33.558,212.92 35.838,213.151 C 38.116,213.374 44.5,212.235 47.463,211.097 C 50.425,209.959 60.452,204.029 62.959,201.985 C 65.466,199.931 73.214,194.232 75.95,190.818 C 78.684,187.395 85.75,181.011 88.486,177.82 C 91.22,174.629 97.148,168.023 99.882,165.287 C 102.616,162.556 105.808,159.135 105.808,159.135 C 105.808,159.135 113.1,164.376 118.57,168.024 C 124.04,171.669 135.433,170.762 139.309,167.801 C 143.185,164.831 147.057,160.733 149.564,158.224 C 152.071,155.714 154.123,152.525 156.403,147.971 C 158.681,143.409 161.415,139.078 162.326,131.559 C 163.238,124.038 163.011,114.691 161.644,109.224 C 160.275,103.754 158.455,92.13 156.63,86.433 C 154.805,80.734 152.527,72.531 152.3,67.518 C 152.071,62.501 153.211,60.906 152.071,58.625 C 150.933,56.349 150.022,54.297 148.653,56.349 C 147.286,58.401 145.69,64.326 144.096,69.112 C 142.5,73.897 140.678,83.926 140.678,92.814 C 140.678,101.702 140.678,114.238 138.169,121.986 C 135.662,129.735 131.561,138.852 128.598,142.725 C 125.636,146.599 120.621,150.931 120.394,140.674 C 120.165,130.419 122.443,109.908 123.812,106.945 C 125.177,103.98 125.177,102.613 125.177,99.651 C 125.177,96.689 124.039,97.373 125.177,94.637 C 126.32,91.905 126.546,88.94 127.228,86.433 C 127.911,83.926 129.964,80.734 128.824,78.229 C 127.686,75.72 127.457,72.986 126.09,71.163 C 124.723,69.338 124.265,68.198 124.038,66.147 C 123.811,64.1 124.267,61.361 122.442,60.906 C 120.619,60.45 120.393,61.135 119.479,62.502 C 118.568,63.871 117.428,64.1 115.149,64.554 C 112.871,65.01 112.413,68.199 111.275,70.935 C 110.135,73.669 104.665,90.992 102.84,101.248 C 101.018,111.503 100.106,122.899 99.422,128.824 C 98.74,134.752 101.703,149.566 101.703,149.566 C 101.703,149.566 79.597,165.747 70.479,171.67 C 61.362,177.601 44.499,185.806 36.521,188.082 C 28.542,190.358 22.845,189.904 20.564,187.629 C 18.286,185.344 19.655,179.645 22.389,174.178 C 25.125,168.71 36.974,148.424 38.799,145.919 C 40.621,143.411 40.85,141.36 42.217,139.309 C 43.584,137.257 46.776,135.891 47.687,134.524 C 48.598,133.155 54.068,124.951 56.802,121.077 C 59.538,117.203 59.996,116.063 62.274,113.329 C 64.55,110.595 67.971,106.717 69.566,105.123 C 71.16,103.527 73.212,101.022 75.263,98.971 C 77.315,96.917 79.137,96.464 79.593,93.728 C 80.051,90.994 80.962,88.714 81.418,87.347 C 81.874,85.98 81.645,85.295 84.607,84.611 C 87.572,83.929 89.395,82.106 91.217,80.966 C 93.042,79.826 93.042,78.914 91.9,77.092 C 90.762,75.269 88.711,72.762 88.711,74.585 C 88.711,76.408 87.573,77.545 85.977,76.408 C 84.381,75.27 85.521,74.814 86.204,73.901 C 86.889,72.99 85.064,71.394 85.064,71.394 L 81.875,71.167 C 81.875,71.167 80.508,69.342 78.683,70.253 C 76.863,71.163 73.216,73.896 73.216,73.896 L 73.216,73.896 z "
   style="fill-rule:evenodd"
   id="path5" />
	<path
   d="M 14.872,123.354 C 14.301,124.15 13.618,124.834 14.645,124.948 C 15.67,125.061 16.352,125.064 16.241,124.15 C 16.125,123.239 14.872,123.354 14.872,123.354 L 14.872,123.354 z "
   style="fill-rule:evenodd"
   id="path7" />
	<path
   d="M 12.936,126.655 C 11.909,127.682 11.454,128.822 11.793,129.393 C 12.138,129.962 12.48,129.733 13.162,128.595 C 13.847,127.457 15.1,127.226 14.3,126.655 C 13.504,126.088 12.936,126.655 12.936,126.655 L 12.936,126.655 z "
   style="fill-rule:evenodd"
   id="path9" />
	<path
   d="M 12.936,131.216 C 12.48,132.127 12.48,132.24 13.049,132.354 C 13.618,132.47 14.074,132.014 13.96,131.332 C 13.847,130.647 12.936,131.216 12.936,131.216 L 12.936,131.216 z "
   style="fill-rule:evenodd"
   id="path11" />
	<path
   d="M 261.355,207.79 C 258.279,207.621 250.757,207.79 246.825,204.893 C 242.893,201.986 238.793,192.926 237.768,189.85 C 236.741,186.774 235.201,177.199 233.665,170.362 C 232.125,163.523 230.247,147.453 229.22,142.841 C 228.196,138.224 227.684,132.755 225.973,129.505 C 224.264,126.26 224.435,122.668 221.87,118.909 C 219.307,115.149 220.332,114.122 217.598,112.415 C 214.862,110.704 212.982,109.85 215.033,108.139 C 217.085,106.432 224.606,103.356 226.997,102.158 C 229.391,100.962 238.279,95.322 240.331,92.93 C 242.382,90.534 246.314,86.602 248.023,84.039 C 249.732,81.474 250.588,80.963 252.466,78.74 C 254.346,76.517 256.74,72.759 257.765,70.021 C 258.792,67.289 260.33,65.578 261.528,62.673 C 262.721,59.768 262.039,54.809 261.355,53.1 C 260.672,51.393 253.665,45.41 251.439,43.527 C 249.219,41.647 240.331,37.546 234.518,37.377 C 228.706,37.206 221.187,38.915 217.426,39.769 C 213.665,40.624 209.391,41.989 207.34,42.674 C 205.288,43.359 203.068,44.726 203.068,44.726 C 203.068,44.726 201.872,43.017 200.503,41.821 C 199.136,40.625 199.307,39.77 198.452,41.99 C 197.598,44.213 196.914,47.976 196.914,47.976 C 196.914,47.976 194.693,48.658 192.128,50.881 C 189.563,53.102 187.685,53.446 187.685,53.446 C 187.685,53.446 187.685,54.126 189.05,55.495 C 190.419,56.864 190.419,56.864 190.419,56.864 C 190.419,56.864 189.563,57.718 189.05,58.231 C 188.536,58.742 187.341,59.598 188.71,60.452 C 190.077,61.307 191.958,61.137 190.933,63.188 C 189.906,65.24 189.222,66.951 187.686,71.905 C 186.145,76.863 185.634,79.94 185.29,82.674 C 184.95,85.41 184.95,86.604 183.069,88.144 C 181.189,89.682 178.966,89.511 176.915,90.367 C 174.864,91.221 172.983,91.734 175.717,94.979 C 178.453,98.229 181.016,98.742 179.991,105.921 C 178.966,113.1 174.864,137.203 173.668,149.507 C 172.472,161.817 169.736,182.153 170.25,189.168 C 170.761,196.174 171.105,202.157 172.473,202.842 C 173.84,203.527 175.378,201.82 176.062,196.859 C 176.744,191.898 181.874,175.317 182.728,171.218 C 183.582,167.114 187,159.253 188.711,155.661 C 190.42,152.072 191.103,144.382 193.154,141.985 C 195.205,139.593 195.377,135.491 196.404,132.93 C 197.428,130.365 197.428,129.507 197.428,129.507 C 197.428,129.507 201.017,131.047 202.724,134.295 C 204.435,137.542 208.196,147.973 210.419,157.542 C 212.64,167.114 218.281,180.446 221.359,186.945 C 224.435,193.435 228.536,200.103 230.93,203.357 C 233.324,206.602 240.674,210.362 243.41,212.069 C 246.144,213.776 250.244,214.807 252.296,215.492 C 254.347,216.168 258.793,215.314 261.356,214.123 C 263.921,212.923 265.116,212.238 265.459,210.7 C 265.8,209.159 264.431,207.959 261.355,207.79 L 261.355,207.79 z M 208.708,94.125 C 208.708,94.125 209.735,89.853 209.906,85.921 C 210.077,81.987 211.102,73.099 211.273,71.047 C 211.444,68.995 210.591,63.014 213.494,62.672 C 216.401,62.33 221.702,62.843 224.607,62.843 C 227.512,62.843 230.759,61.476 234.52,59.767 C 238.281,58.056 240.161,58.056 241.528,58.056 C 242.895,58.056 243.41,59.428 242.213,61.819 C 241.017,64.211 237.085,71.218 234.862,73.27 C 232.639,75.321 231.786,78.055 228.879,79.593 C 225.974,81.131 221.702,83.356 218.624,85.921 C 215.547,88.481 208.708,94.125 208.708,94.125 L 208.708,94.125 z "
   style="fill-rule:evenodd"
   id="path13" />
	<path
   d="M 302.721,129.849 C 301.185,124.548 298.107,119.423 297.082,117.371 C 296.055,115.319 294.859,111.73 291.952,109.85 C 289.047,107.97 287.166,107.798 284.944,105.918 C 282.721,104.036 282.039,101.644 282.039,101.644 C 282.039,101.644 282.722,101.815 283.235,99.937 C 283.749,98.055 283.406,97.886 284.26,96.861 C 285.115,95.834 288.705,91.56 289.561,88.824 C 290.415,86.09 290.074,82.843 289.047,79.938 C 288.02,77.031 287.509,76.177 286.996,74.468 C 286.483,72.759 286.825,71.559 287.851,72.417 C 288.876,73.271 289.56,74.982 290.585,75.322 C 291.612,75.664 292.808,74.298 293.49,73.784 C 294.177,73.271 294.003,71.39 293.832,69.17 C 293.663,66.95 292.465,66.263 290.584,65.238 C 288.704,64.211 287.166,61.82 286.995,63.871 C 286.824,65.923 286.995,66.95 286.824,67.801 C 286.653,68.657 284.603,68.657 283.576,67.801 C 282.552,66.95 282.894,66.092 280.842,66.434 C 278.788,66.776 278.448,67.119 277.081,68.483 C 275.712,69.852 273.661,72.072 272.978,73.784 C 272.293,75.491 271.951,75.664 270.755,77.202 C 269.559,78.74 269.388,79.938 268.363,80.107 C 267.336,80.28 266.481,78.911 265.456,80.621 C 264.429,82.332 265.285,82.501 264.771,84.553 C 264.26,86.602 259.815,93.784 258.619,97.373 C 257.421,100.962 253.662,109.851 252.293,112.927 C 250.928,116.003 249.901,121.131 249.217,123.355 C 248.532,125.576 247.506,129.338 247.506,132.755 C 247.506,136.173 248.704,141.472 248.875,145.061 C 249.046,148.651 250.755,155.488 251.78,158.224 C 252.807,160.96 255.201,165.916 256.568,167.454 C 257.935,168.992 261.011,172.922 263.919,175.144 C 266.827,177.366 267.337,176.513 270.416,177.367 C 273.49,178.221 273.661,177.714 276.226,176.851 C 278.789,175.997 277.935,173.437 280.842,174.122 C 283.747,174.807 285.799,174.629 286.823,172.922 C 287.849,171.215 290.241,167.97 291.779,166.943 C 293.32,165.917 293.488,165.234 294.344,163.354 C 295.198,161.471 295.882,160.616 296.738,159.591 C 297.592,158.564 299.814,156.343 300.156,154.805 C 300.496,153.267 300.156,152.754 301.01,151.044 C 301.865,149.335 302.037,149.335 302.89,146.088 C 303.748,142.841 304.261,135.148 302.721,129.849 L 302.721,129.849 z M 286.311,141.303 C 285.629,143.521 282.381,151.387 280.33,154.292 C 278.278,157.199 275.885,159.933 273.491,161.642 C 271.099,163.354 267.852,162.84 267.17,159.762 C 266.483,156.686 268.195,145.573 268.195,141.983 C 268.195,138.398 266.997,137.54 268.022,135.149 C 269.049,132.755 272.296,129.339 272.125,128.139 C 271.954,126.946 272.81,120.449 273.663,117.201 C 274.518,113.954 276.399,111.218 276.739,109.68 C 277.083,108.14 278.279,106.262 278.279,106.262 C 278.45,106.947 279.475,107.971 281.527,110.876 C 283.578,113.783 285.459,119.593 286.143,121.987 C 286.826,124.381 286.997,129.166 286.997,131.047 C 286.996,132.928 286.996,139.078 286.311,141.303 L 286.311,141.303 z "
   style="fill-rule:evenodd"
   id="path15" />
	<path
   d="M 468.185,67.518 C 464.766,55.207 456.333,44.954 447.444,41.536 C 438.557,38.115 428.982,38.571 420.096,42.216 C 411.205,45.866 400.721,57.259 400.721,57.259 C 400.721,57.259 390.01,44.954 379.528,39.94 C 369.044,34.926 354.228,33.33 339.414,43.814 C 324.601,54.298 317.079,66.832 312.293,80.052 C 307.506,93.27 303.86,114.236 317.992,135.204 C 332.121,156.172 346.935,169.162 359.242,175.314 C 371.546,181.466 383.4,182.835 383.4,182.835 C 383.4,182.835 383.173,187.849 384.769,190.356 C 386.365,192.863 385.907,193.325 389.554,193.325 C 393.199,193.325 395.024,191.494 395.024,191.494 C 395.024,191.494 390.465,192.41 393.657,186.026 C 396.846,179.642 401.635,170.761 404.596,167.569 C 407.555,164.378 410.067,162.555 411.889,159.59 C 413.711,156.627 412.8,155.258 415.307,155.033 C 417.815,154.804 417.13,154.119 418.953,152.297 C 420.775,150.472 421.691,149.79 423.056,148.194 C 424.425,146.597 425.79,147.74 426.706,145.916 C 427.617,144.089 432.627,139.761 434.454,137.938 C 436.276,136.116 434.223,134.52 436.503,133.835 C 438.779,133.15 439.922,132.926 441.518,130.645 C 443.114,128.365 451.541,117.883 454.738,114.462 C 457.926,111.044 462.486,106.029 464.766,98.281 C 467.042,90.533 471.603,79.822 468.185,67.518 L 468.185,67.518 z M 448.127,86.432 C 442.882,95.776 423.514,122.668 414.628,133.381 C 405.735,144.09 393.882,160.504 391.148,164.378 C 388.417,168.254 384.993,177.599 384.993,177.599 C 384.993,177.599 381.579,176.23 377.476,173.722 C 373.373,171.215 366.992,166.432 362.202,162.326 C 357.416,158.223 341.465,142.954 336.223,135.888 C 330.982,128.822 322.094,113.782 322.776,101.019 C 323.461,88.254 328.019,71.162 337.361,60.223 C 346.707,49.285 360.381,44.04 368.587,45.409 C 376.791,46.776 385.906,51.561 389.324,55.893 C 392.742,60.223 395.708,62.956 395.708,62.956 C 395.708,62.956 393.198,66.374 391.147,68.882 C 389.095,71.389 388.416,72.758 388.416,72.758 C 388.416,72.758 387.044,76.176 388.872,77.088 C 390.692,77.999 393.199,77.317 395.251,77.317 C 397.305,77.317 397.76,76.861 399.583,76.176 C 401.403,75.489 403.455,72.985 403.455,72.985 C 403.455,72.985 403.91,76.861 403.23,78.684 C 402.545,80.507 403.23,80.96 405.052,81.873 C 406.874,82.786 407.785,81.644 407.785,81.644 C 407.785,81.644 410.293,81.873 410.973,81.644 C 411.662,81.417 411.889,80.506 411.431,78.684 C 410.973,76.862 410.293,73.67 409.835,72.53 C 409.382,71.39 409.154,68.883 409.154,68.883 C 409.154,68.883 419.868,56.578 427.616,53.387 C 435.364,50.195 444.481,47.686 450.86,55.665 C 457.246,63.641 453.369,77.088 448.127,86.432 L 448.127,86.432 z "
   style="fill-rule:evenodd"
   id="path17" />
	<path
   d="M 488.011,151.044 C 490.403,144.892 494.167,134.975 495.532,131.559 C 496.896,128.138 501,117.885 502.711,112.415 C 504.418,106.945 506.129,96.345 506.815,91.56 C 507.499,86.772 508.184,84.723 506.129,80.28 C 504.08,75.835 502.711,71.732 498.95,68.314 C 495.189,64.896 495.874,65.922 493.14,63.526 C 490.402,61.134 490.059,60.45 488.01,59.427 C 485.956,58.4 485.618,57.716 485.276,59.767 C 484.934,61.819 484.25,63.185 484.25,63.185 C 484.25,63.185 487.668,68.313 485.619,73.44 C 483.565,78.567 479.124,98.398 476.728,105.232 C 474.336,112.069 467.157,140.446 467.837,154.46 C 468.522,168.476 470.233,182.496 472.967,188.648 C 475.705,194.8 477.07,196.507 479.461,196.507 C 481.857,196.507 480.83,194.462 481.173,186.594 C 481.515,178.735 481.173,167.799 484.249,160.958 C 487.327,154.12 488.011,151.044 488.011,151.044 L 488.011,151.044 z "
   style="fill-rule:evenodd"
   id="path19" />
	<path
   d="M 503.739,202.323 C 503.739,202.323 507.499,194.464 510.575,191.387 C 513.651,188.31 530.401,174.975 533.477,172.921 C 536.558,170.876 545.787,161.641 552.281,158.563 C 558.775,155.487 570.742,143.52 574.161,141.471 C 577.579,139.422 580.998,135.658 583.052,133.951 C 585.101,132.24 587.835,128.479 589.204,123.009 C 590.573,117.539 591.258,110.362 588.861,108.311 C 586.469,106.259 580.998,104.893 576.215,104.893 C 571.427,104.893 560.145,107.969 553.651,109.338 C 547.157,110.703 538.951,109.338 537.244,107.627 C 535.532,105.918 535.875,101.132 538.266,97.372 C 540.657,93.612 546.81,85.408 550.232,83.012 C 553.651,80.62 555.358,78.569 559.461,77.887 C 563.565,77.202 570.059,75.491 572.112,73.442 C 574.162,71.391 575.873,66.263 573.134,61.478 C 570.401,56.69 567.324,54.639 561.172,52.248 C 555.02,49.856 552.855,48.943 551.485,48.83 C 550.116,48.714 549.32,48.83 548.52,50.312 C 547.724,51.79 547.724,53.841 547.724,53.841 C 547.724,53.841 546.698,54.528 545.102,53.159 C 543.505,51.79 542.71,49.627 542.71,49.627 C 542.71,49.627 540.087,53.388 537.811,54.868 C 535.531,56.35 527.098,66.377 524.365,71.505 C 521.631,76.635 516.501,87.346 519.235,99.083 C 521.968,110.821 525.271,116.747 533.82,120.847 C 542.368,124.95 548.635,123.926 552.739,123.356 C 556.838,122.787 558.207,121.645 558.665,122.101 C 559.118,122.559 559.007,124.152 557.18,125.75 C 555.358,127.344 538.951,140.904 529.149,149.906 C 519.351,158.91 513.883,165.973 509.211,173.723 C 504.534,181.467 503.966,181.129 501.569,188.766 C 499.177,196.403 498.609,200.848 499.52,203.356 C 500.431,205.854 503.281,208.361 503.281,208.361 C 503.281,208.361 499.862,205.063 501.001,201.186 C 502.139,197.31 504.081,194.918 504.081,194.918 C 504.081,194.918 504.419,196.74 504.081,198.564 C 503.739,200.385 503.739,202.323 503.739,202.323 L 503.739,202.323 z "
   style="fill-rule:evenodd"
   id="path21" />
	<path
   d="M 608.344,10.711 C 608.344,10.711 613.305,12.589 615.355,14.641 C 617.409,16.692 623.561,17.891 626.637,21.82 C 629.713,25.752 633.131,36.178 632.962,40.966 C 632.789,45.749 630.739,51.906 625.099,53.444 C 619.457,54.982 622.707,55.836 615.866,56.689 C 609.029,57.544 606.98,57.887 604.415,57.031 C 601.851,56.177 599.459,51.219 599.459,47.802 C 599.459,44.384 600.144,32.246 601.339,26.605 C 602.535,20.966 603.051,18.23 603.22,16.007 C 603.389,13.787 603.22,11.393 603.905,12.76 C 604.59,14.127 605.616,15.665 606.981,17.376 C 608.345,19.083 608.861,19.428 610.23,18.914 C 611.599,18.403 611.257,16.178 610.057,14.3 C 608.86,12.421 608.344,10.711 608.344,10.711 L 608.344,10.711 z "
   style="fill-rule:evenodd"
   id="path23" />
	<path
   d="M 618.257,126.088 C 619.8,121.303 624.93,116.687 625.778,114.635 C 626.636,112.584 628.174,107.458 629.201,104.551 C 630.228,101.644 630.228,99.765 630.055,98.054 C 629.882,96.345 630.055,94.806 627.663,93.782 C 625.267,92.755 624.93,93.953 624.414,91.046 C 623.902,88.141 623.56,87.799 622.191,88.312 C 620.822,88.823 619.115,89.339 618.603,89.508 C 618.087,89.679 616.039,89.853 613.816,88.823 C 611.597,87.799 611.424,88.141 609.886,88.312 C 608.343,88.481 607.152,88.481 608.517,90.192 C 609.886,91.903 609.886,92.755 609.371,94.635 C 608.859,96.513 605.267,106.259 603.734,111.556 C 602.196,116.857 600.822,120.789 598.604,125.06 C 596.381,129.336 591.762,142.495 591.256,146.597 C 590.74,150.701 588.691,160.614 588.175,166.941 C 587.664,173.267 588.175,180.442 589.544,182.149 C 590.909,183.865 590.229,183.349 592.278,183.349 C 594.327,183.349 594.327,181.98 595.011,180.442 C 595.695,178.904 594.499,176.166 596.553,176.343 C 598.603,176.512 599.456,177.197 599.629,174.627 C 599.798,172.066 600.82,169.675 601.167,167.799 C 601.51,165.914 603.732,159.931 603.901,159.075 C 604.074,158.221 608.857,148.822 609.542,147.45 C 610.227,146.086 611.254,142.494 612.276,140.961 C 613.302,139.42 613.645,136.342 616.037,134.119 C 618.429,131.899 618.429,130.016 618.255,128.649 C 618.088,127.284 618.257,126.088 618.257,126.088 L 618.257,126.088 z "
   style="fill-rule:evenodd"
   id="path25" />
	<path
   d="M 795.006,195.833 C 791.756,195.148 789.702,193.602 786.119,191.21 C 782.527,188.818 780.136,185.742 776.202,179.074 C 772.267,172.415 771.757,164.718 771.241,156.856 C 770.729,148.993 770.903,139.422 769.876,134.292 C 768.854,129.164 769.023,117.2 767.484,111.045 C 765.947,104.893 763.555,94.975 763.04,92.928 C 762.528,90.876 759.79,84.208 757.91,82.157 C 756.034,80.105 751.758,72.758 746.801,68.481 C 741.845,64.209 733.47,64.894 730.732,65.063 C 727.998,65.236 723.895,65.407 721.166,65.407 C 718.428,65.407 718.939,66.948 716.036,67.459 C 713.129,67.972 713.129,72.071 712.444,74.296 C 711.759,76.516 707.488,85.407 705.265,94.466 C 703.042,103.523 701.846,119.422 701.846,119.422 C 701.846,119.422 698.601,112.583 694.325,106.259 C 690.054,99.936 686.804,98.053 681.167,93.781 C 675.526,89.507 667.147,86.771 664.925,84.892 C 662.706,83.01 662.706,79.765 664.071,77.028 C 665.44,74.295 668.689,68.993 670.227,66.602 C 671.761,64.208 670.054,63.524 668.173,64.379 C 666.293,65.235 664.243,66.431 662.363,68.993 C 660.482,71.556 654.842,78.397 654.842,78.397 C 654.842,78.397 647.662,76.346 645.44,76.859 C 643.217,77.37 640.822,80.96 639.799,83.867 C 638.772,86.77 641.51,88.479 643.902,88.992 C 646.294,89.505 646.978,90.53 646.294,92.07 C 645.614,93.608 642.707,98.736 641.849,101.641 C 640.995,104.548 636.213,117.197 634.675,120.787 C 633.132,124.376 632.447,143.862 634.327,154.971 C 636.213,166.082 646.294,173.773 648.006,175.995 C 649.713,178.218 650.398,178.387 652.446,177.711 C 654.5,177.026 654.674,178.733 656.55,179.418 C 658.43,180.103 665.098,179.587 667.832,177.533 C 670.57,175.479 681.505,166.766 685.95,163.006 C 690.395,159.247 698.086,150.186 698.086,150.186 C 698.086,150.186 697.401,163.691 697.401,174.289 C 697.401,184.887 699.624,192.408 704.754,196.853 C 709.88,201.298 714.325,199.414 715.352,196.853 C 716.374,194.292 716.037,187.624 716.037,182.832 C 716.037,178.049 715.695,173.603 716.891,169.158 C 718.087,164.715 718.941,159.419 720.479,154.117 C 722.021,148.821 725.608,128.308 726.804,121.127 C 727.999,113.95 729.711,96.858 731.418,93.266 C 733.129,89.677 734.325,86.429 735.183,84.891 C 736.037,83.353 737.917,85.231 739.455,86.429 C 740.993,87.625 742.019,92.581 743.9,98.736 C 745.776,104.89 748.514,123.865 749.71,134.632 C 750.906,145.401 756.036,168.82 758.085,173.266 C 760.139,177.711 763.384,182.663 765.949,185.909 C 768.513,189.163 772.1,193.262 774.323,194.631 C 776.546,196 780.137,198.73 783.725,200.099 C 787.312,201.468 789.197,202.668 793.638,203.006 C 798.083,203.353 799.621,201.468 799.963,199.414 C 800.305,197.371 798.251,196.509 795.006,195.833 L 795.006,195.833 z M 689.542,139.591 C 687.662,142.667 677.918,151.729 673.984,154.292 C 670.054,156.856 666.804,158.908 662.364,160.104 C 657.919,161.302 652.789,162.156 651.761,161.302 C 650.739,160.447 651.592,159.077 651.592,157.539 C 651.592,156.001 652.277,153.607 651.25,151.044 C 650.228,148.48 649.031,148.311 650.738,145.403 C 652.445,142.495 652.961,139.762 653.134,136.857 C 653.303,133.952 653.988,124.208 654.325,122.668 C 654.672,121.13 657.574,118.396 658.77,114.976 C 659.965,111.558 662.531,103.356 662.531,101.644 C 662.531,99.937 663.216,97.201 663.216,97.201 C 663.216,97.201 671.079,101.644 674.835,105.747 C 678.601,109.85 682.53,114.635 684.41,117.372 C 686.291,120.106 687.829,124.72 688.855,127.798 C 689.879,130.876 691.417,136.515 689.542,139.591 L 689.542,139.591 z "
   style="fill-rule:evenodd"
   id="path27" />
	<path
   d="M 161.226,240.89 L 152.106,240.89 C 152.106,238.739 151.284,237.636 147.439,237.636 L 132.116,237.636 C 129.535,237.636 127.721,238.587 127.721,241.237 C 127.721,244.384 129.591,244.794 132.116,244.794 L 148.757,244.794 C 157.161,244.794 161.226,245.585 161.226,255.249 C 161.226,262.602 157.71,265.793 148.704,265.793 L 130.305,265.793 C 120.583,265.793 117.674,262.647 117.674,255.942 L 126.791,255.942 C 126.791,257.64 128.714,259.241 131.292,259.241 L 146.562,259.241 C 150.572,259.241 152.107,258.041 152.107,255.249 C 152.107,252.742 151.503,251.347 146.286,251.347 L 132.777,251.347 C 122.397,251.347 118.608,249.693 118.608,240.891 C 118.608,233.885 122.562,231.085 132.724,231.085 L 148.209,231.085 C 157.434,231.084 161.226,234.187 161.226,240.89 L 161.226,240.89 z "
   style="fill-rule:evenodd"
   id="path29" />
	<path
   d="M 176.6,253.097 L 176.6,243.833 C 176.6,238.89 178.196,237.583 183.906,237.583 L 195.657,237.583 C 201.096,237.583 202.963,238.738 202.963,243.788 L 202.963,253.043 C 202.963,257.746 201.645,258.894 195.822,258.894 L 183.742,258.894 C 178.195,258.894 176.6,257.64 176.6,253.097 L 176.6,253.097 z M 212.08,253.941 L 212.08,243.041 C 212.08,233.279 207.741,230.684 198.295,230.684 L 181.545,230.684 C 171.165,230.684 167.484,233.529 167.484,243.041 L 167.484,253.941 C 167.484,262.342 171.329,265.792 181.545,265.792 L 198.295,265.792 C 208.948,265.792 212.08,262.601 212.08,253.941 L 212.08,253.941 z "
   style="fill-rule:evenodd"
   id="path31" />
	<polygon
   points="233.661,231.084 256.892,258.894 258.155,258.894 258.155,231.084 267.27,231.084 267.27,265.792 251.62,265.792 228.718,237.982 227.456,237.982 227.456,265.792 218.338,265.792 218.338,231.084 233.661,231.084 "
   style="fill-rule:evenodd"
   id="polygon33" />
	<path
   d="M 319.72,245.442 L 319.72,254.697 C 319.72,263.045 315.71,265.792 305.882,265.792 L 287.43,265.792 C 278.093,265.792 273.369,262.343 273.369,253.941 L 273.369,243.29 C 273.369,233.982 277.488,230.684 287.43,230.684 L 305.716,230.684 C 314.942,230.684 319.721,232.684 319.721,241.335 L 310.606,241.335 C 310.606,238.686 308.848,237.583 303.356,237.583 L 289.9,237.583 C 284.41,237.583 282.485,239.139 282.485,244.34 L 282.485,253.142 C 282.485,257.845 283.75,258.894 289.791,258.894 L 304.783,258.894 C 309.342,258.894 310.606,257.791 310.606,255.293 L 310.606,251.594 L 295.557,251.594 L 295.557,245.443 L 319.72,245.443 L 319.72,245.442 z "
   style="fill-rule:evenodd"
   id="path35" />
	<path
   d="M 388.53,253.79 C 388.476,263.045 386.005,265.792 374.75,265.792 L 357.778,265.792 C 347.234,265.792 343.884,262.85 343.884,253.541 L 343.884,243.69 C 343.884,233.528 347.454,230.683 358.656,230.683 L 373.814,230.683 C 382.82,230.683 388.477,233.031 388.477,242.783 L 379.362,242.783 C 379.362,239.138 377.328,237.583 372.058,237.583 L 360.36,237.583 C 354.263,237.583 352.999,238.534 352.999,243.984 L 352.999,252.589 C 352.999,257.888 355.142,258.893 360.36,258.893 L 372.058,258.893 C 377.493,258.893 379.362,257.995 379.362,253.789 L 388.53,253.789 L 388.53,253.79 z "
   style="fill-rule:evenodd"
   id="path37" />
	<path
   d="M 403.306,253.097 L 403.306,243.833 C 403.306,238.89 404.898,237.583 410.61,237.583 L 422.363,237.583 C 427.8,237.583 429.667,238.738 429.667,243.788 L 429.667,253.043 C 429.667,257.746 428.352,258.894 422.528,258.894 L 410.446,258.894 C 404.898,258.894 403.306,257.64 403.306,253.097 L 403.306,253.097 z M 438.78,253.941 L 438.78,243.041 C 438.78,233.279 434.446,230.684 425,230.684 L 408.25,230.684 C 397.868,230.684 394.189,233.529 394.189,243.041 L 394.189,253.941 C 394.189,262.342 398.034,265.792 408.25,265.792 L 425,265.792 C 435.655,265.792 438.78,262.601 438.78,253.941 L 438.78,253.941 z "
   style="fill-rule:evenodd"
   id="path39" />
	<polygon
   points="460.366,231.084 483.597,258.894 484.859,258.894 484.859,231.084 493.976,231.084 493.976,265.792 478.325,265.792 455.422,237.982 454.161,237.982 454.161,265.792 445.042,265.792 445.042,231.084 460.366,231.084 "
   style="fill-rule:evenodd"
   id="polygon41" />
	<polygon
   points="540.549,231.084 540.549,237.982 524.458,237.982 524.458,265.792 515.34,265.792 515.34,237.982 499.413,237.982 499.413,231.084 540.549,231.084 "
   style="fill-rule:evenodd"
   id="polygon43" />
	<polygon
   points="545.106,231.084 584.042,231.084 584.042,237.636 554.219,237.636 554.219,245.237 583.113,245.237 583.113,251.292 554.219,251.292 554.219,259.24 584.042,259.24 584.042,265.792 545.106,265.792 545.106,231.084 "
   style="fill-rule:evenodd"
   id="polygon45" />
	<path
   d="M 633.251,240.89 L 624.134,240.89 C 624.134,238.739 623.312,237.636 619.466,237.636 L 604.144,237.636 C 601.566,237.636 599.751,238.587 599.751,241.237 C 599.751,244.384 601.618,244.794 604.144,244.794 L 620.787,244.794 C 629.188,244.794 633.252,245.585 633.252,255.249 C 633.252,262.602 629.735,265.793 620.73,265.793 L 602.33,265.793 C 592.613,265.793 589.701,262.647 589.701,255.942 L 598.818,255.942 C 598.818,257.64 600.739,259.241 603.322,259.241 L 618.592,259.241 C 622.597,259.241 624.135,258.041 624.135,255.249 C 624.135,252.742 623.531,251.347 618.316,251.347 L 604.807,251.347 C 594.423,251.347 590.635,249.693 590.635,240.891 C 590.635,233.885 594.587,231.085 604.749,231.085 L 620.236,231.085 C 629.464,231.084 633.251,234.187 633.251,240.89 L 633.251,240.89 z "
   style="fill-rule:evenodd"
   id="path47" />
	<polygon
   points="679.549,231.084 679.549,237.982 663.458,237.982 663.458,265.792 654.339,265.792 654.339,237.982 638.413,237.982 638.413,231.084 679.549,231.084 "
   style="fill-rule:evenodd"
   id="polygon49" />
</g>
</svg>